<svg width="171" height="63" viewBox="0 0 171 63" fill="none" xmlns="http://www.w3.org/2000/svg">
<path d="M52.236 37H48.204V13V10.12L27.996 37H24.252V3.4H28.284V27.352V30.232L48.492 3.4H52.236V37ZM56.0089 3.4H67.4809C76.9849 3.4 81.7369 7.016 81.7369 14.248C81.7369 21.48 76.9849 25.096 67.4809 25.096H60.0409V37H56.0089V3.4ZM77.6569 14.248C77.6569 12.872 77.4009 11.72 76.8889 10.792C76.3769 9.832 75.6409 9.112 74.6809 8.632C73.7529 8.12 72.7289 7.768 71.6089 7.576C70.4889 7.352 69.1769 7.24 67.6729 7.24H60.0409V21.256H67.6729C70.7769 21.256 73.2089 20.744 74.9689 19.72C76.7609 18.696 77.6569 16.872 77.6569 14.248ZM86.7352 16.984H95.6632C104.271 16.984 108.575 20.328 108.575 27.016C108.575 33.672 104.271 37 95.6632 37H82.7032V3.4H105.983V7.24H86.7352V16.984ZM86.7352 33.16H95.8552C96.8152 33.16 97.6632 33.128 98.3992 33.064C99.1352 32.968 99.9032 32.808 100.703 32.584C101.535 32.328 102.207 31.992 102.719 31.576C103.231 31.128 103.647 30.52 103.967 29.752C104.319 28.984 104.495 28.072 104.495 27.016C104.495 25.704 104.255 24.616 103.775 23.752C103.295 22.856 102.607 22.216 101.711 21.832C100.815 21.448 99.9192 21.192 99.0232 21.064C98.1272 20.904 97.0712 20.824 95.8552 20.824H86.7352V33.16ZM137.616 37H133.584V13V10.12L113.376 37H109.632V3.4H113.664V27.352V30.232L133.872 3.4H137.616V37ZM139.133 20.44C139.133 16.728 140.013 13.512 141.773 10.792C143.533 8.04 145.725 6.024 148.349 4.744C150.973 3.464 153.789 2.824 156.797 2.824C160.253 2.824 163.405 3.576 166.253 5.08V9.112C163.821 7.48 160.893 6.664 157.469 6.664C153.629 6.664 150.301 7.848 147.485 10.216C144.669 12.552 143.245 15.96 143.213 20.44C143.213 23.288 143.933 25.752 145.373 27.832C146.845 29.912 148.637 31.416 150.749 32.344C152.893 33.272 155.181 33.736 157.613 33.736C161.229 33.736 164.189 32.92 166.493 31.288V35.32C163.581 36.824 160.333 37.576 156.749 37.576C154.605 37.576 152.493 37.208 150.413 36.472C148.333 35.704 146.445 34.632 144.749 33.256C143.053 31.848 141.693 30.04 140.669 27.832C139.645 25.592 139.133 23.128 139.133 20.44Z" fill="black"/>
<path d="M25.464 56H23.424V41.6H25.824V52.13L34.644 41.6H36.684V56H34.284V45.47L25.464 56ZM40.3694 56H37.9694V41.6H40.3694V47.69H48.7094V41.6H51.1094V56H48.7094V49.91H40.3694V56ZM58.3975 56H55.9975V43.82H50.6875V41.6H63.6775V43.82H58.3975V56ZM61.7926 48.8C61.7926 46.44 62.5126 44.59 63.9526 43.25C65.4126 41.91 67.0826 41.24 68.9626 41.24C70.7226 41.24 72.1726 41.68 73.3126 42.56C74.4726 43.44 75.2326 44.53 75.5926 45.83C75.9526 47.11 75.9726 48.45 75.6526 49.85H64.1926C64.3326 51.27 64.9626 52.34 66.0826 53.06C67.2026 53.78 68.5526 54.14 70.1326 54.14C71.8926 54.14 73.4726 53.75 74.8726 52.97V55.31C73.5326 56.01 71.8326 56.36 69.7726 56.36C67.4926 56.36 65.5926 55.71 64.0726 54.41C62.5526 53.11 61.7926 51.24 61.7926 48.8ZM73.5226 47.75C73.5826 47.33 73.5526 46.89 73.4326 46.43C73.3126 45.97 73.0926 45.51 72.7726 45.05C72.4726 44.59 72.0026 44.21 71.3626 43.91C70.7226 43.61 69.9726 43.46 69.1126 43.46C67.8126 43.46 66.6826 43.84 65.7226 44.6C64.7826 45.36 64.2726 46.41 64.1926 47.75H73.5226ZM78.4096 56H76.0096V41.6H86.5396V43.82H78.4096V56ZM88.2911 44C89.9111 42.16 91.8511 41.24 94.1111 41.24C96.1711 41.24 97.8811 41.96 99.2411 43.4C100.621 44.84 101.311 46.64 101.311 48.8C101.311 50.96 100.621 52.76 99.2411 54.2C97.8811 55.64 96.1711 56.36 94.1111 56.36C91.8311 56.36 89.9711 55.52 88.5311 53.84V62.6H86.1311V41.6H88.2911V44ZM97.4411 52.67C98.4211 51.69 98.9111 50.4 98.9111 48.8C98.9111 47.2 98.4211 45.91 97.4411 44.93C96.4811 43.95 95.2811 43.46 93.8411 43.46C92.6211 43.46 91.5411 43.8 90.6011 44.48C89.6611 45.16 88.9711 46 88.5311 47V50.6C88.9711 51.6 89.6611 52.44 90.6011 53.12C91.5411 53.8 92.6211 54.14 93.8411 54.14C95.2811 54.14 96.4811 53.65 97.4411 52.67ZM113.314 53C113.314 53.74 113.684 54.11 114.424 54.11C114.744 54.11 115.114 54.04 115.534 53.9V55.85C114.934 56.07 114.334 56.18 113.734 56.18C112.354 56.18 111.474 55.6 111.094 54.44C109.554 55.72 107.684 56.36 105.484 56.36C104.084 56.36 102.884 55.99 101.884 55.25C100.904 54.49 100.414 53.4 100.414 51.98C100.414 50.28 101.044 49.05 102.304 48.29C103.584 47.51 105.124 47.12 106.924 47.12C108.244 47.12 109.574 47.27 110.914 47.57V47.06C110.914 45.96 110.554 45.09 109.834 44.45C109.114 43.79 108.104 43.46 106.804 43.46C104.984 43.46 103.234 43.82 101.554 44.54V42.2C103.434 41.56 105.264 41.24 107.044 41.24C109.004 41.24 110.534 41.77 111.634 42.83C112.754 43.87 113.314 45.38 113.314 47.36V53ZM102.874 51.86C102.874 52.66 103.174 53.27 103.774 53.69C104.394 54.09 105.134 54.29 105.994 54.29C107.974 54.29 109.614 53.59 110.914 52.19V49.55C109.554 49.27 108.334 49.13 107.254 49.13C106.034 49.13 104.994 49.35 104.134 49.79C103.294 50.21 102.874 50.9 102.874 51.86ZM129.778 59.9H127.438V56H114.958V41.6H117.358V53.78H125.248V41.6H127.648V53.78H129.778V59.9ZM131.866 56H129.826V41.6H132.226V52.13L141.046 41.6H143.086V56H140.686V45.47L131.866 56ZM145.811 56H142.991L147.161 50.72C146.061 50.4 145.211 49.84 144.611 49.04C144.011 48.24 143.711 47.32 143.711 46.28C143.711 44.96 144.191 43.85 145.151 42.95C146.111 42.05 147.431 41.6 149.111 41.6H156.191V56H153.791V50.96H149.741L145.811 56ZM146.951 44.42C146.391 44.86 146.111 45.48 146.111 46.28C146.111 47.08 146.391 47.7 146.951 48.14C147.531 48.58 148.321 48.8 149.321 48.8H153.791V43.76H149.321C148.321 43.76 147.531 43.98 146.951 44.42Z" fill="#626262"/>
<rect y="6" width="4.45779" height="12.1034" fill="#F69E24"/>
<rect x="14.0103" y="20.8965" width="4.45779" height="12.1034" fill="#F59D24"/>
<path d="M11.2019 6H18.468L7.19302 33H0L11.2019 6Z" fill="#B11636"/>
</svg>
